<?xml version="1.0" standalone="no"?>
<!DOCTYPE svg PUBLIC "-//W3C//DTD SVG 20010904//EN"
 "http://www.w3.org/TR/2001/REC-SVG-20010904/DTD/svg10.dtd">
<svg version="1.0" xmlns="http://www.w3.org/2000/svg"
 width="512.000000pt" height="512.000000pt" viewBox="0 0 512.000000 512.000000"
 preserveAspectRatio="xMidYMid meet">
<metadata>
Created by potrace 1.14, written by Peter Selinger 2001-2017
</metadata>
<g transform="translate(0.000000,512.000000) scale(0.100000,-0.100000)"
fill="#000000" stroke="none">
<path d="M1575 4609 c-332 -55 -495 -382 -445 -890 6 -57 20 -156 32 -219 11
-63 21 -123 22 -133 1 -13 -18 -24 -84 -46 -446 -151 -718 -350 -809 -591 -34
-89 -35 -246 -2 -335 88 -242 363 -444 811 -596 66 -22 85 -32 84 -46 -1 -10
-14 -85 -28 -168 -59 -333 -42 -600 49 -791 100 -209 304 -316 541 -284 90 12
223 54 314 100 124 63 312 198 440 316 l61 57 52 -50 c115 -111 319 -258 447
-323 161 -81 343 -120 472 -101 298 46 468 309 468 726 0 101 -24 307 -50 432
-11 52 -18 99 -15 103 3 5 20 12 38 15 55 12 268 96 362 143 261 130 432 291
496 467 17 47 22 82 22 165 0 83 -5 118 -22 165 -64 176 -235 337 -496 468
-93 46 -352 147 -379 147 -26 0 -26 15 -6 113 118 564 22 967 -263 1107 -167
81 -336 76 -557 -19 -154 -66 -347 -197 -498 -336 l-73 -68 -47 45 c-121 116
-323 263 -452 328 -87 44 -221 88 -305 99 -86 12 -108 12 -180 0z m166 -334
c123 -19 353 -158 542 -327 l48 -43 -76 -90 c-42 -49 -114 -140 -160 -201
l-84 -110 -113 -13 c-62 -7 -174 -24 -248 -36 -74 -13 -136 -22 -138 -20 -8 7
-33 140 -47 245 -17 124 -19 269 -5 360 13 80 61 182 99 210 32 22 95 39 126
34 11 -1 36 -5 56 -9z m1799 -17 c45 -24 76 -70 103 -150 32 -95 31 -343 -2
-524 -13 -73 -26 -136 -30 -142 -4 -7 -53 -2 -146 13 -77 13 -189 29 -249 36
l-108 13 -90 119 c-49 65 -115 149 -146 185 -32 37 -63 74 -70 84 -11 14 -1
26 85 98 187 157 359 257 488 285 69 15 115 11 165 -17z m-921 -664 c28 -34
51 -65 51 -68 0 -3 -49 -6 -110 -6 -60 0 -110 3 -110 6 0 10 105 134 111 131
4 -1 30 -30 58 -63z m309 -423 c52 -64 352 -585 352 -611 0 -17 -185 -348
-271 -485 l-87 -140 -360 -3 -360 -2 -84 132 c-83 131 -278 480 -278 498 0 18
195 367 277 497 l84 132 142 4 c78 1 239 1 357 -1 184 -4 217 -7 228 -21z
m-1186 -83 c-17 -29 -41 -72 -55 -96 l-24 -43 -22 58 c-37 101 -35 106 34 119
103 20 101 21 67 -38z m1728 33 c41 -9 42 -23 9 -114 l-22 -57 -39 67 c-22 38
-46 81 -55 96 l-14 28 43 -6 c24 -4 59 -10 78 -14z m-2153 -184 c17 -50 58
-156 91 -234 l59 -143 -59 -142 c-33 -79 -74 -185 -91 -235 -18 -51 -38 -93
-45 -93 -24 0 -239 83 -327 127 -219 110 -355 240 -355 343 0 70 86 179 200
255 113 75 421 213 480 214 10 1 25 -29 47 -92z m2670 47 c272 -102 468 -235
523 -357 24 -53 25 -81 1 -133 -41 -89 -151 -182 -320 -268 -99 -50 -315 -136
-343 -136 -7 0 -27 42 -45 93 -17 50 -58 156 -91 235 l-59 142 59 143 c33 78
74 184 91 235 37 109 24 106 184 46z m-2221 -1002 c-6 -5 -141 20 -150 29 -5
5 3 40 19 84 l27 76 54 -92 c29 -51 52 -95 50 -97z m1724 99 c11 -35 18 -67
13 -71 -9 -8 -143 -33 -149 -28 -2 2 20 45 49 95 29 51 55 86 59 80 3 -7 16
-41 28 -76z m-1776 -426 c83 -13 184 -27 224 -31 l73 -7 88 -116 c48 -64 120
-154 160 -201 l72 -85 -48 -43 c-258 -229 -519 -361 -656 -330 -60 13 -93 42
-126 111 -63 129 -68 347 -15 622 23 119 22 118 51 110 14 -3 93 -17 177 -30z
m1900 18 c3 -10 15 -72 28 -138 31 -170 32 -431 1 -523 -48 -141 -119 -191
-248 -170 -138 21 -361 153 -558 330 l-48 43 71 85 c40 47 111 137 160 200
l88 115 143 19 c79 10 187 26 239 36 124 23 118 23 124 3z m-944 -79 c0 -10
-102 -129 -110 -129 -8 0 -110 119 -110 129 0 3 50 6 110 6 61 0 110 -3 110
-6z"/>
<path d="M2472 2960 c-111 -24 -230 -120 -280 -228 -24 -51 -27 -69 -27 -167
0 -104 2 -114 33 -177 42 -86 129 -168 209 -198 118 -44 256 -34 358 25 60 36
132 115 163 183 24 51 27 69 27 167 0 104 -2 114 -32 176 -81 163 -273 257
-451 219z"/>
</g>
</svg>
